<svg width="18" height="18" viewBox="0 0 18 18" fill="none" xmlns="http://www.w3.org/2000/svg">
<path d="M18 0.828645C18 6.26087 18 11.6931 18 17.1253C18 17.1714 18 17.2174 17.9538 17.2634C17.8154 17.5857 17.6308 17.8159 17.2615 17.9079C17.2154 17.9079 17.2154 17.9079 17.1692 17.954C15.6 17.954 13.9846 17.954 12.4154 17.954C12.4154 17.9079 12.4154 17.9079 12.4154 17.8619C12.4154 15.6061 12.4154 13.3964 12.4154 11.1407C12.4154 11.0946 12.4154 11.0946 12.4154 11.0486V11.0026C13.2 11.0026 13.9846 11.0026 14.7231 11.0026C14.8615 10.0818 14.9538 9.20716 15.0923 8.28645C14.1692 8.28645 13.2923 8.28645 12.4154 8.28645C12.4154 8.24041 12.4154 8.24041 12.4154 8.24041C12.4154 7.68798 12.4154 7.13555 12.4154 6.58312C12.4154 6.39898 12.4154 6.21483 12.4615 6.03069C12.5077 5.80051 12.6462 5.61637 12.8769 5.47826C13.0154 5.38619 13.1538 5.34015 13.2923 5.34015C13.4769 5.29412 13.7077 5.29412 13.8923 5.29412C14.3077 5.29412 14.6769 5.29412 15.0923 5.29412C15.1385 5.29412 15.1385 5.29412 15.1846 5.29412C15.1846 4.46547 15.1846 3.68286 15.1846 2.90026C15.1385 2.90026 15.1385 2.90026 15.0923 2.90026C14.8154 2.90026 14.5385 2.85422 14.2615 2.85422C13.9385 2.85422 13.5692 2.80818 13.2462 2.80818C12.8308 2.80818 12.3692 2.85422 11.9538 2.94629C10.9385 3.22251 10.2 3.86701 9.83077 4.8798C9.64615 5.34015 9.6 5.84655 9.6 6.35294C9.6 6.99744 9.6 7.64194 9.6 8.28645C9.6 8.33248 9.6 8.33248 9.6 8.37852C8.81538 8.37852 8.03077 8.37852 7.24615 8.37852C7.24615 9.29923 7.24615 10.1739 7.24615 11.0946C8.03077 11.0946 8.81538 11.0946 9.6 11.0946C9.6 11.1407 9.6 11.1867 9.6 11.1867C9.6 13.4425 9.6 15.6982 9.6 17.9079C9.6 17.954 9.6 17.954 9.6 18C6.69231 18 3.73846 18 0.830769 18H0.784615C0.369231 17.8159 0 17.4476 0 16.9412C0 11.6471 0 6.30691 0 1.01279C0 0.782609 0.0461538 0.598465 0.184615 0.414322C0.369231 0.138107 0.692308 0 1.01538 0C6.32308 0 11.6308 0 16.9846 0H17.0308C17.4462 0 17.8154 0.276215 17.9538 0.690537C17.9538 0.736573 17.9538 0.782609 18 0.828645Z" fill="#5B5B5B"/>
</svg>
