<svg width="18" height="18" viewBox="0 0 18 18" fill="none" xmlns="http://www.w3.org/2000/svg">
<path fill-rule="evenodd" clip-rule="evenodd" d="M17.9207 4.07095C18 4.50998 18 4.98892 18 5.42794C18 7.94235 18 10.4568 17.9603 12.9313C17.9603 14.1286 17.6035 15.2461 16.8106 16.1641C16.0176 17.122 14.9868 17.7206 13.7577 17.9202C13.6648 17.9389 13.5805 17.9488 13.5009 17.9582C13.4107 17.9689 13.3265 17.9788 13.2423 18H4.67841C4.64649 17.9964 4.61394 17.9929 4.58086 17.9892C4.24419 17.9523 3.85354 17.9095 3.52863 17.8005C1.86344 17.2816 0.713656 16.1242 0.198238 14.408C0.0396476 13.9291 0 13.4102 0 12.8914V4.98892C0 3.79158 0.356828 2.71397 1.14978 1.79601C1.94273 0.878049 2.97357 0.279379 4.20264 0.0798227C4.29559 0.0611094 4.37982 0.0511702 4.45942 0.0417773C4.5496 0.0311372 4.63383 0.0211981 4.71806 0H13.3216C13.6784 0.0399113 14.0749 0.119734 14.4317 0.199557C15.2643 0.399113 15.978 0.878049 16.5727 1.47672C17.2863 2.19512 17.7621 3.07317 17.9207 4.07095ZM4.36123 8.98005C4.32158 11.5743 6.4229 13.6896 9 13.6896C11.5374 13.6896 13.5991 11.6142 13.5991 9.01996C13.5991 6.46563 11.5771 4.35033 9 4.35033C6.46255 4.35033 4.40088 6.38581 4.36123 8.98005ZM12.6476 4.15078C12.6476 4.78936 13.163 5.34812 13.7973 5.34812C14.4714 5.34812 14.9868 4.82927 14.9868 4.19069C14.9868 3.5122 14.4714 2.99335 13.837 2.99335C13.2026 2.99335 12.6476 3.5122 12.6476 4.15078ZM5.94717 8.98016C5.94717 7.3438 7.29519 5.98681 8.96039 5.9469C10.6256 5.9469 12.0132 7.30388 12.0132 8.98016C12.0529 10.6564 10.7049 12.0134 9.00004 12.0533C7.33484 12.0533 5.94717 10.6963 5.94717 8.98016Z" fill="#5B5B5B"/>
</svg>
