<svg width="29" height="26" viewBox="0 0 29 26" fill="none" xmlns="http://www.w3.org/2000/svg">
<mask id="path-1-inside-1_191_1350" fill="white">
<path fill-rule="evenodd" clip-rule="evenodd" d="M15.1858 0.19174C11.2743 2.0708 8.58997 6.09735 8.58997 10.6991C8.58997 17.1416 13.8437 22.3569 20.2478 22.3186C20.9381 22.3186 21.5516 22.2802 22.2035 22.1652C19.8643 24.5428 16.6047 26 13 26C5.82891 26 0 20.1711 0 13C0 5.82891 5.82891 0 13 0C13.767 0 14.4572 0.0766962 15.1858 0.19174ZM24.6578 6.32742L25.8849 8.55161L28.0708 9.7404L25.8849 10.9675L24.6578 13.1534L23.469 10.9675L21.2448 9.7404L23.469 8.55161L24.6578 6.32742ZM17.3718 17.4867L18.1388 16.1061L19.5193 15.3392L18.1388 14.5722L17.3718 13.1533L16.6049 14.5722L15.186 15.3392L16.6049 16.1061L17.3718 17.4867ZM19.4809 3.56628L18.7139 4.98516L17.947 3.56628L16.5281 2.79932L17.947 2.03236L18.7139 0.651825L19.4809 2.03236L20.8614 2.79932L19.4809 3.56628Z"/>
</mask>
<path fill-rule="evenodd" clip-rule="evenodd" d="M15.1858 0.19174C11.2743 2.0708 8.58997 6.09735 8.58997 10.6991C8.58997 17.1416 13.8437 22.3569 20.2478 22.3186C20.9381 22.3186 21.5516 22.2802 22.2035 22.1652C19.8643 24.5428 16.6047 26 13 26C5.82891 26 0 20.1711 0 13C0 5.82891 5.82891 0 13 0C13.767 0 14.4572 0.0766962 15.1858 0.19174ZM24.6578 6.32742L25.8849 8.55161L28.0708 9.7404L25.8849 10.9675L24.6578 13.1534L23.469 10.9675L21.2448 9.7404L23.469 8.55161L24.6578 6.32742ZM17.3718 17.4867L18.1388 16.1061L19.5193 15.3392L18.1388 14.5722L17.3718 13.1533L16.6049 14.5722L15.186 15.3392L16.6049 16.1061L17.3718 17.4867ZM19.4809 3.56628L18.7139 4.98516L17.947 3.56628L16.5281 2.79932L17.947 2.03236L18.7139 0.651825L19.4809 2.03236L20.8614 2.79932L19.4809 3.56628Z" fill="#EC6A06"/>
<path d="M15.1858 0.19174L15.6189 1.09313L18.51 -0.295775L15.3418 -0.796023L15.1858 0.19174ZM20.2478 22.3186V21.3186L20.2418 21.3186L20.2478 22.3186ZM22.2035 22.1652L22.9164 22.8665L25.1101 20.6368L22.0298 21.1804L22.2035 22.1652ZM25.8849 8.55161L25.0094 9.03469L25.1505 9.29051L25.4072 9.4301L25.8849 8.55161ZM24.6578 6.32742L25.5334 5.84435L24.6438 4.23208L23.7759 5.85605L24.6578 6.32742ZM28.0708 9.7404L28.5603 10.6124L30.1383 9.72651L28.5485 8.86192L28.0708 9.7404ZM25.8849 10.9675L25.3954 10.0956L25.1505 10.2331L25.0129 10.478L25.8849 10.9675ZM24.6578 13.1534L23.7793 13.6312L24.6439 15.2209L25.5298 13.6429L24.6578 13.1534ZM23.469 10.9675L24.3475 10.4898L24.2079 10.2331L23.9521 10.092L23.469 10.9675ZM21.2448 9.7404L20.7734 8.85847L19.1495 9.72645L20.7617 10.616L21.2448 9.7404ZM23.469 8.55161L23.9404 9.43354L24.2079 9.29054L24.3509 9.02299L23.469 8.55161ZM18.1388 16.1061L17.6531 15.232L17.4034 15.3707L17.2646 15.6205L18.1388 16.1061ZM17.3718 17.4867L16.4977 17.9723L17.3718 19.5458L18.246 17.9723L17.3718 17.4867ZM19.5193 15.3392L20.005 16.2133L21.5784 15.3392L20.005 14.465L19.5193 15.3392ZM18.1388 14.5722L17.2591 15.0477L17.3979 15.3046L17.6531 15.4464L18.1388 14.5722ZM17.3718 13.1533L18.2515 12.6778L17.3718 11.0504L16.4921 12.6778L17.3718 13.1533ZM16.6049 14.5722L17.0804 15.4519L17.3427 15.3101L17.4846 15.0477L16.6049 14.5722ZM15.186 15.3392L14.7105 14.4595L13.083 15.3392L14.7105 16.2189L15.186 15.3392ZM16.6049 16.1061L17.479 15.6205L17.3372 15.3653L17.0804 15.2264L16.6049 16.1061ZM18.7139 4.98516L17.8342 5.46068L18.7139 7.08814L19.5937 5.46068L18.7139 4.98516ZM19.4809 3.56628L18.9953 2.69212L18.74 2.83392L18.6012 3.09076L19.4809 3.56628ZM17.947 3.56628L18.8267 3.09076L18.6849 2.82839L18.4225 2.68657L17.947 3.56628ZM16.5281 2.79932L16.0526 1.91961L14.4251 2.79932L16.0526 3.67902L16.5281 2.79932ZM17.947 2.03236L18.4225 2.91206L18.6794 2.77323L18.8211 2.518L17.947 2.03236ZM18.7139 0.651825L19.5881 0.166182L18.7139 -1.4073L17.8398 0.166183L18.7139 0.651825ZM19.4809 2.03236L18.6068 2.518L18.7455 2.76776L18.9953 2.90651L19.4809 2.03236ZM20.8614 2.79932L21.3471 3.67348L22.9206 2.79932L21.3471 1.92516L20.8614 2.79932ZM9.58997 10.6991C9.58997 6.49245 12.0442 2.81035 15.6189 1.09313L14.7528 -0.709645C10.5044 1.33124 7.58997 5.70224 7.58997 10.6991H9.58997ZM20.2418 21.3186C14.3937 21.3536 9.58997 16.5883 9.58997 10.6991H7.58997C7.58997 17.6949 13.2937 23.3602 20.2538 23.3186L20.2418 21.3186ZM22.0298 21.1804C21.4509 21.2826 20.8983 21.3186 20.2478 21.3186V23.3186C20.9779 23.3186 21.6523 23.2779 22.3773 23.15L22.0298 21.1804ZM13 27C16.8796 27 20.394 25.4302 22.9164 22.8665L21.4907 21.4639C19.3346 23.6553 16.3298 25 13 25V27ZM-1 13C-1 20.7234 5.27663 27 13 27V25C6.38119 25 1 19.6188 1 13H-1ZM13 -1C5.27663 -1 -1 5.27663 -1 13H1C1 6.38119 6.38119 1 13 1V-1ZM15.3418 -0.796023C14.5829 -0.915843 13.8371 -1 13 -1V1C13.6969 1 14.3315 1.06924 15.0299 1.1795L15.3418 -0.796023ZM26.7605 8.06853L25.5334 5.84435L23.7822 6.8105L25.0094 9.03469L26.7605 8.06853ZM28.5485 8.86192L26.3627 7.67313L25.4072 9.4301L27.593 10.6189L28.5485 8.86192ZM26.3745 11.8395L28.5603 10.6124L27.5812 8.86842L25.3954 10.0956L26.3745 11.8395ZM25.5298 13.6429L26.7569 11.4571L25.0129 10.478L23.7858 12.6638L25.5298 13.6429ZM22.5905 11.4453L23.7793 13.6312L25.5363 12.6756L24.3475 10.4898L22.5905 11.4453ZM20.7617 10.616L22.9859 11.8431L23.9521 10.092L21.7279 8.86483L20.7617 10.616ZM22.9976 7.66968L20.7734 8.85847L21.7162 10.6223L23.9404 9.43354L22.9976 7.66968ZM23.7759 5.85605L22.5871 8.08023L24.3509 9.02299L25.5397 6.7988L23.7759 5.85605ZM17.2646 15.6205L16.4977 17.001L18.246 17.9723L19.0129 16.5918L17.2646 15.6205ZM19.0337 14.465L17.6531 15.232L18.6244 16.9803L20.005 16.2133L19.0337 14.465ZM17.6531 15.4464L19.0337 16.2133L20.005 14.465L18.6244 13.6981L17.6531 15.4464ZM16.4921 13.6289L17.2591 15.0477L19.0185 14.0967L18.2515 12.6778L16.4921 13.6289ZM17.4846 15.0477L18.2515 13.6289L16.4921 12.6778L15.7251 14.0967L17.4846 15.0477ZM15.6615 16.2189L17.0804 15.4519L16.1293 13.6925L14.7105 14.4595L15.6615 16.2189ZM17.0804 15.2264L15.6615 14.4595L14.7105 16.2189L16.1293 16.9858L17.0804 15.2264ZM18.246 17.001L17.479 15.6205L15.7307 16.5918L16.4977 17.9723L18.246 17.001ZM19.5937 5.46068L20.3606 4.0418L18.6012 3.09076L17.8342 4.50964L19.5937 5.46068ZM17.0673 4.0418L17.8342 5.46068L19.5937 4.50964L18.8267 3.09076L17.0673 4.0418ZM16.0526 3.67902L17.4715 4.44599L18.4225 2.68657L17.0036 1.91961L16.0526 3.67902ZM17.4715 1.15265L16.0526 1.91961L17.0036 3.67902L18.4225 2.91206L17.4715 1.15265ZM17.8398 0.166183L17.0728 1.54671L18.8211 2.518L19.5881 1.13747L17.8398 0.166183ZM20.3551 1.54671L19.5881 0.166182L17.8398 1.13747L18.6068 2.518L20.3551 1.54671ZM21.3471 1.92516L19.9666 1.1582L18.9953 2.90651L20.3758 3.67348L21.3471 1.92516ZM19.9666 4.44044L21.3471 3.67348L20.3758 1.92516L18.9953 2.69212L19.9666 4.44044Z" fill="black" mask="url(#path-1-inside-1_191_1350)"/>
</svg>
