<svg width="22" height="22" viewBox="0 0 22 22" fill="none" xmlns="http://www.w3.org/2000/svg">
<path d="M1.10596 20.9002L8.4788 18.7002L3.68645 13.2002L1.10596 20.9002Z" fill="#3ABA35"/>
<path d="M11.0593 20.5335C16.3528 20.5335 20.644 16.2652 20.644 11.0001C20.644 5.73502 16.3528 1.4668 11.0593 1.4668C5.76582 1.4668 1.47461 5.73502 1.47461 11.0001C1.47461 16.2652 5.76582 20.5335 11.0593 20.5335Z" fill="#3ABA35"/>
<path fill-rule="evenodd" clip-rule="evenodd" d="M17.4097 2.05557C19.7261 3.71161 21.2101 5.97966 21.753 8.75172C22.4407 12.0638 21.6806 15.0519 19.6175 17.7159C17.844 19.948 15.4913 21.28 12.6682 21.712C10.3879 22.036 8.18001 21.676 6.11691 20.632C5.89974 20.488 5.71877 20.488 5.4654 20.56C4.40195 20.8561 3.351 21.1274 2.28316 21.4031C1.53381 21.5966 0.776135 21.7922 0 22C0.144779 21.424 0.289558 20.92 0.434337 20.416C0.597213 19.786 0.769138 19.1559 0.941064 18.5259C1.11299 17.8959 1.28491 17.2659 1.44779 16.6359C1.48398 16.4919 1.44779 16.2399 1.3754 16.0959C0.361948 14.2238 -0.0361943 12.2078 0.108585 10.0837C0.325753 7.56369 1.26682 5.36764 3.00416 3.5316C4.70532 1.69556 6.80461 0.543539 9.30204 0.14753C12.2338 -0.32048 14.9846 0.327534 17.4097 2.05557ZM12.3424 19.876C14.0797 19.6239 15.5999 18.9759 16.9029 17.8239C19.2556 15.7719 20.3414 13.1798 20.0519 10.1197C19.8709 8.0317 19.0746 6.19566 17.5906 4.71963C15.1294 2.27158 12.1614 1.40756 8.79532 2.19957C5.06726 3.09959 2.35266 6.23166 1.95452 10.0117C1.73735 12.0998 2.20788 14.0798 3.36611 15.8799C3.4385 15.9879 3.47469 16.2399 3.4385 16.3839C3.39219 16.6603 3.31625 16.9219 3.23911 17.1877C3.19568 17.3373 3.15186 17.4883 3.11275 17.6439L3.11274 17.644C2.96796 18.2199 2.82318 18.7959 2.64222 19.4079C2.7508 19.3719 2.82319 19.3719 2.85938 19.3719C3.83646 19.12 4.77736 18.868 5.71825 18.6161L5.71877 18.6159C5.97213 18.5439 6.1531 18.5439 6.37027 18.6879C8.2162 19.768 10.2069 20.164 12.3424 19.876ZM15.7836 13.0885C15.953 13.1673 16.1213 13.2456 16.2875 13.3239C16.5409 13.4319 16.5771 13.6119 16.6133 13.8279C16.6133 15.1239 15.817 15.7719 14.5864 16.0959C13.6314 16.3252 12.7663 15.9883 11.9093 15.6545C11.8243 15.6214 11.7395 15.5884 11.6546 15.5559C9.48291 14.6919 7.92654 13.1079 6.58733 11.2718C6.08061 10.5878 5.68247 9.86779 5.53769 9.03978C5.32052 7.85175 5.68246 6.84373 6.58733 6.08771C6.75945 5.94505 6.99978 5.89284 7.23624 5.84147C7.29812 5.82803 7.35975 5.81464 7.41981 5.79971C8.10751 5.87171 8.10751 5.87171 8.36088 6.48372C8.45431 6.69614 8.54282 6.91345 8.63185 7.13205C8.78425 7.50622 8.93819 7.88416 9.12096 8.24776C9.26574 8.53577 9.26574 8.78777 9.08477 9.03978C8.9038 9.29178 8.68663 9.54379 8.46946 9.79579C8.28849 10.0118 8.28848 10.1558 8.39707 10.3718C9.26574 11.8838 10.5326 12.9639 12.1613 13.6119C12.3785 13.6839 12.5233 13.6479 12.668 13.5039C12.9576 13.1799 13.2109 12.8559 13.4643 12.5319L13.4643 12.5319C13.6453 12.2438 13.8625 12.1718 14.1882 12.3158C14.7097 12.5889 15.2521 12.8412 15.7836 13.0885Z" fill="white"/>
</svg>
