<svg width="27" height="18" viewBox="0 0 27 18" fill="none" xmlns="http://www.w3.org/2000/svg">
<path d="M11.4253 0C12.8368 0 14.2484 0 15.66 0C15.6695 0.035885 15.7074 0.0179426 15.7263 0.0179426C17.6021 0.0448563 19.4874 0.0897125 21.3537 0.21531C22.2158 0.269137 23.0684 0.322965 23.9211 0.484447C25.2095 0.735642 26.0905 1.46231 26.5358 2.63755C26.7063 3.09508 26.7821 3.57953 26.8484 4.06398C26.9147 4.56637 27 5.07773 27 5.58909C27 7.88573 27 10.1913 27 12.488C27 12.5418 27 12.5867 27 12.6405C26.9242 13.412 26.8389 14.1835 26.6684 14.9461C26.4221 16.0227 25.7874 16.8032 24.7358 17.2876C24.2621 17.5029 23.7411 17.5747 23.2295 17.6375C22.14 17.7631 21.0505 17.8259 19.9516 17.8707C18.4737 17.9335 16.9958 17.9604 15.5179 17.9874C13.6326 18.0143 11.7568 17.9963 9.87158 17.9515C8.55474 17.9246 7.2379 17.8797 5.93053 17.79C5.02105 17.7272 4.12105 17.6823 3.23053 17.5029C1.85684 17.2248 0.947369 16.4443 0.558948 15.1614C0.284211 14.2374 0.208421 13.2774 0.132632 12.3175C0.0757894 11.5909 0.0378948 10.8642 0.0189474 10.1375C0.0189474 10.1196 0.0284211 10.0927 0 10.0837C0 9.34804 0 8.62137 0 7.88573C0.0378947 7.87676 0.0189474 7.84087 0.0189474 7.82293C0.0378948 7.02449 0.0852632 6.22605 0.151579 5.42761C0.217895 4.62916 0.303158 3.83072 0.492632 3.05022C0.776842 1.83911 1.53474 1.00478 2.76632 0.57416C3.25895 0.403706 3.78947 0.367821 4.31053 0.313994C5.26737 0.21531 6.22421 0.161482 7.18105 0.125597C8.56421 0.0627987 9.94737 0.0269138 11.3305 0.00897128C11.3495 0.0179425 11.3968 0.035885 11.4253 0ZM10.8663 5.14053C10.8663 7.71527 10.8663 10.2721 10.8663 12.8468C13.2253 11.5639 15.5747 10.2811 17.9337 8.99816C15.5747 7.7063 13.2253 6.43239 10.8663 5.14053Z" fill="#5B5B5B"/>
</svg>
